<?xml version="1.0" encoding="UTF-8"?>
<!DOCTYPE svg PUBLIC "-//W3C//DTD SVG 1.1//EN" "http://www.w3.org/Graphics/SVG/1.1/DTD/svg11.dtd">
<!-- Creator: CorelDRAW 2017 -->
<svg xmlns="http://www.w3.org/2000/svg" xml:space="preserve" width="438px" height="380px" version="1.1" style="shape-rendering:geometricPrecision; text-rendering:geometricPrecision; image-rendering:optimizeQuality; fill-rule:evenodd; clip-rule:evenodd"
viewBox="0 0 438 380"
 xmlns:xlink="http://www.w3.org/1999/xlink">
 <defs>
  <style type="text/css">
   <![CDATA[
    .fil0 {fill:white;fill-rule:nonzero}
   ]]>
  </style>
 </defs>
 <g id="Warstwa_x0020_1">
  <metadata id="CorelCorpID_0Corel-Layer"/>
  <path class="fil0" d="M0 275l55 -8c2,18 6,31 14,40 8,9 17,14 28,14 12,0 21,-6 29,-17 8,-11 12,-26 12,-45 0,-18 -4,-32 -11,-43 -8,-10 -17,-16 -28,-16 -7,0 -16,2 -26,5l6 -58c15,1 27,-4 35,-13 8,-9 12,-21 12,-35 0,-13 -3,-22 -9,-30 -6,-7 -14,-11 -23,-11 -10,0 -18,4 -25,13 -7,8 -11,21 -12,37l-52 -11c4,-23 9,-41 16,-54 7,-13 17,-24 30,-32 13,-8 28,-12 44,-12 28,0 50,11 67,34 14,18 21,39 21,62 0,33 -14,59 -42,78 17,5 30,15 40,31 10,16 15,35 15,58 0,33 -9,60 -28,83 -19,23 -42,34 -70,34 -27,0 -49,-10 -66,-29 -18,-19 -28,-45 -30,-76zm438 98l-52 0 0 -39c-9,15 -19,27 -31,35 -12,8 -24,12 -36,12 -25,0 -46,-12 -63,-37 -17,-25 -26,-60 -26,-104 0,-46 8,-80 26,-104 17,-24 39,-36 65,-36 24,0 45,13 62,37l0 -134 56 0 0 371zm-150 -140c0,29 3,50 9,62 9,19 22,28 38,28 13,0 24,-7 33,-21 9,-14 14,-35 14,-63 0,-31 -4,-53 -13,-67 -9,-14 -20,-20 -34,-20 -13,0 -25,7 -34,20 -9,13 -13,34 -13,60z"/>
 </g>
</svg>
