<?xml version="1.0" encoding="UTF-8"?>
<!DOCTYPE svg PUBLIC "-//W3C//DTD SVG 1.1//EN" "http://www.w3.org/Graphics/SVG/1.1/DTD/svg11.dtd">
<!-- Creator: CorelDRAW 2017 -->
<svg xmlns="http://www.w3.org/2000/svg" xml:space="preserve" width="448px" height="278px" version="1.1" style="shape-rendering:geometricPrecision; text-rendering:geometricPrecision; image-rendering:optimizeQuality; fill-rule:evenodd; clip-rule:evenodd"
viewBox="0 0 448 278"
 xmlns:xlink="http://www.w3.org/1999/xlink">
 <defs>
  <style type="text/css">
   <![CDATA[
    .fil0 {fill:white;fill-rule:nonzero}
   ]]>
  </style>
 </defs>
 <g id="Warstwa_x0020_1">
  <metadata id="CorelCorpID_0Corel-Layer"/>
  <path class="fil0" d="M0 190l0 -65c8,-23 18,-34 29,-34 4,0 8,1 11,3 3,2 10,8 19,17 9,9 15,14 18,14 4,0 8,-3 13,-8 5,-6 9,-15 14,-27l0 67c-3,8 -7,15 -12,22 -5,7 -11,10 -17,10 -3,0 -6,-1 -9,-3 -3,-2 -8,-7 -15,-14 -10,-11 -18,-16 -23,-16 -9,0 -18,11 -27,34zm119 88l0 -71 68 -69 -68 -68 0 -70 97 109 0 60 -97 109zm116 0l0 -71 68 -69 -68 -68 0 -70 97 109 0 60 -97 109zm116 0l0 -71 68 -69 -68 -68 0 -70 97 109 0 60 -97 109z"/>
 </g>
</svg>
